<?xml version="1.0" standalone="no"?>
<!DOCTYPE svg PUBLIC "-//W3C//DTD SVG 20010904//EN"
 "http://www.w3.org/TR/2001/REC-SVG-20010904/DTD/svg10.dtd">
<svg version="1.0" xmlns="http://www.w3.org/2000/svg"
 width="1076.000000pt" height="1076.000000pt" viewBox="0 0 1076.000000 1076.000000"
 preserveAspectRatio="xMidYMid meet">

<g transform="translate(0.000000,1076.000000) scale(0.100000,-0.100000)"
fill="#000000" stroke="none">
<path d="M5236 8207 c3 -10 9 -15 12 -12 3 3 0 11 -7 18 -10 9 -11 8 -5 -6z"/>
<path d="M5580 8196 c0 -2 7 -6 15 -10 8 -3 15 -1 15 4 0 6 -7 10 -15 10 -8 0
-15 -2 -15 -4z"/>
<path d="M5419 8173 c-13 -16 -12 -17 4 -4 9 7 17 15 17 17 0 8 -8 3 -21 -13z"/>
<path d="M5626 8167 c3 -10 9 -15 12 -12 3 3 0 11 -7 18 -10 9 -11 8 -5 -6z"/>
<path d="M5253 8090 c0 -36 2 -50 4 -32 2 17 2 47 0 65 -2 17 -4 3 -4 -33z"/>
<path d="M5386 8135 c-9 -26 -7 -32 5 -12 6 10 9 21 6 23 -2 3 -7 -2 -11 -11z"/>
<path d="M4961 8124 c0 -11 3 -14 6 -6 3 7 2 16 -1 19 -3 4 -6 -2 -5 -13z"/>
<path d="M4595 8100 c-3 -5 -1 -10 4 -10 6 0 11 5 11 10 0 6 -2 10 -4 10 -3 0
-8 -4 -11 -10z"/>
<path d="M6004 8094 c-18 -14 -18 -15 4 -4 12 6 22 13 22 15 0 8 -5 6 -26 -11z"/>
<path d="M5566 8083 c-10 -10 -7 -41 4 -48 12 -7 40 12 40 26 0 12 -36 30 -44
22z"/>
<path d="M4601 8064 c0 -11 3 -14 6 -6 3 7 2 16 -1 19 -3 4 -6 -2 -5 -13z"/>
<path d="M5437 8073 c-14 -13 -7 -71 10 -84 15 -13 15 -12 4 10 -7 13 -11 36
-9 52 5 31 5 32 -5 22z"/>
<path d="M4415 8060 c-3 -6 1 -7 9 -4 18 7 21 14 7 14 -6 0 -13 -4 -16 -10z"/>
<path d="M6045 8050 c-3 -5 -1 -10 4 -10 6 0 11 5 11 10 0 6 -2 10 -4 10 -3 0
-8 -4 -11 -10z"/>
<path d="M4610 8014 c0 -16 5 -36 11 -44 7 -11 8 -4 4 24 -7 49 -15 60 -15 20z"/>
<path d="M5263 7955 c0 -38 2 -53 4 -32 2 20 2 52 0 70 -2 17 -4 1 -4 -38z"/>
<path d="M5090 8006 c0 -2 8 -10 18 -17 15 -13 16 -12 3 4 -13 16 -21 21 -21
13z"/>
<path d="M4802 7974 c-7 -8 -8 -14 -3 -14 10 0 25 19 20 25 -2 1 -10 -3 -17
-11z"/>
<path d="M5932 7965 c0 -16 2 -22 5 -12 2 9 2 23 0 30 -3 6 -5 -1 -5 -18z"/>
<path d="M4982 7960 c0 -14 2 -19 5 -12 2 6 2 18 0 25 -3 6 -5 1 -5 -13z"/>
<path d="M5570 7965 c-15 -18 -71 -20 -88 -3 -8 8 -12 8 -12 1 0 -14 29 -27
53 -24 10 1 25 -3 33 -10 12 -10 13 -9 8 5 -6 14 5 21 29 17 10 -1 9 17 -2 23
-5 3 -14 -1 -21 -9z"/>
<path d="M6182 7960 c0 -14 2 -19 5 -12 2 6 2 18 0 25 -3 6 -5 1 -5 -13z"/>
<path d="M4150 7950 c-8 -5 -10 -10 -5 -10 6 0 17 5 25 10 8 5 11 10 5 10 -5
0 -17 -5 -25 -10z"/>
<path d="M5610 7936 c0 -9 5 -16 10 -16 6 0 10 4 10 9 0 6 -4 13 -10 16 -5 3
-10 -1 -10 -9z"/>
<path d="M4096 7909 c-26 -30 -35 -56 -16 -44 6 3 10 14 10 23 1 16 2 16 14 0
7 -10 16 -15 19 -11 4 3 -1 12 -11 19 -9 7 -12 14 -6 14 7 0 14 7 18 15 8 23
0 18 -28 -16z"/>
<path d="M5051 7915 c0 -17 -6 -36 -13 -43 -9 -9 -9 -12 0 -12 17 0 24 22 19
57 l-4 28 -2 -30z"/>
<path d="M4705 7921 c-3 -5 -1 -12 5 -16 5 -3 10 1 10 9 0 18 -6 21 -15 7z"/>
<path d="M6241 7919 c-1 -9 -13 -34 -27 -55 -15 -21 -19 -32 -10 -24 23 18 48
69 42 83 -2 7 -5 5 -5 -4z"/>
<path d="M4430 7915 c0 -5 5 -17 10 -25 5 -8 10 -10 10 -5 0 6 -5 17 -10 25
-5 8 -10 11 -10 5z"/>
<path d="M6376 7885 c-9 -26 -7 -32 5 -12 6 10 9 21 6 23 -2 3 -7 -2 -11 -11z"/>
<path d="M6445 7879 c-4 -6 -5 -12 -2 -15 2 -3 7 2 10 11 7 17 1 20 -8 4z"/>
<path d="M4870 7849 c0 -5 5 -7 10 -4 6 3 10 8 10 11 0 2 -4 4 -10 4 -5 0 -10
-5 -10 -11z"/>
<path d="M4062 7820 c0 -19 2 -27 5 -17 2 9 2 25 0 35 -3 9 -5 1 -5 -18z"/>
<path d="M5960 7846 c0 -2 8 -10 18 -17 15 -13 16 -12 3 4 -13 16 -21 21 -21
13z"/>
<path d="M6509 7753 c-13 -16 -12 -17 4 -4 9 7 17 15 17 17 0 8 -8 3 -21 -13z"/>
<path d="M3906 7745 c-9 -26 -7 -32 5 -12 6 10 9 21 6 23 -2 3 -7 -2 -11 -11z"/>
<path d="M3756 7733 c-6 -14 -5 -15 5 -6 7 7 10 15 7 18 -3 3 -9 -2 -12 -12z"/>
<path d="M3820 7715 c-10 -12 -7 -13 21 -5 42 12 49 20 17 20 -14 0 -31 -7
-38 -15z"/>
<path d="M6956 7675 c-15 -19 -23 -35 -19 -35 4 0 18 16 31 35 29 45 22 45
-12 0z"/>
<path d="M6870 7550 c-6 -11 -8 -20 -6 -20 3 0 10 9 16 20 6 11 8 20 6 20 -3
0 -10 -9 -16 -20z"/>
<path d="M3837 7513 c-14 -13 -7 -38 13 -51 20 -12 21 -12 5 12 -9 14 -14 30
-10 36 7 11 2 14 -8 3z"/>
<path d="M3330 7433 l-45 -48 50 45 c27 25 52 46 54 48 2 1 0 2 -5 2 -6 0 -30
-21 -54 -47z"/>
<path d="M6901 7447 c2 -1 13 -9 24 -17 19 -14 19 -14 6 3 -7 9 -18 17 -24 17
-6 0 -8 -1 -6 -3z"/>
<path d="M3410 7430 c-9 -6 -10 -10 -3 -10 6 0 15 5 18 10 8 12 4 12 -15 0z"/>
<path d="M3409 7307 c-33 -38 -38 -41 -55 -27 -18 13 -18 13 -1 -5 17 -19 18
-19 59 22 23 23 40 44 38 47 -3 2 -21 -15 -41 -37z"/>
<path d="M3452 7282 c-43 -45 -37 -49 10 -6 20 18 34 35 30 37 -4 1 -22 -13
-40 -31z"/>
<path d="M7253 7265 c0 -12 3 -12 16 -3 9 7 18 14 20 15 2 2 -5 3 -16 3 -11 0
-20 -7 -20 -15z"/>
<path d="M7368 7273 c7 -3 16 -2 19 1 4 3 -2 6 -13 5 -11 0 -14 -3 -6 -6z"/>
<path d="M7345 7230 c-9 -16 -20 -30 -25 -30 -6 0 -10 -4 -10 -10 0 -20 27 2
43 35 20 43 14 47 -8 5z"/>
<path d="M7270 7236 c0 -2 8 -10 18 -17 15 -13 16 -12 3 4 -13 16 -21 21 -21
13z"/>
<path d="M5071 7184 c0 -11 3 -14 6 -6 3 7 2 16 -1 19 -3 4 -6 -2 -5 -13z"/>
<path d="M3086 7146 c3 -8 13 -17 22 -21 13 -5 13 -2 -3 15 -21 24 -26 25 -19
6z"/>
<path d="M7357 7143 c-2 -4 -7 -21 -10 -38 -6 -30 -6 -30 9 4 8 18 13 35 11
38 -3 2 -7 1 -10 -4z"/>
<path d="M7322 7054 c-7 -8 -18 -11 -24 -8 -7 4 -8 2 -4 -4 8 -14 46 2 46 18
0 13 -2 12 -18 -6z"/>
<path d="M5220 7056 c0 -2 7 -7 16 -10 8 -3 12 -2 9 4 -6 10 -25 14 -25 6z"/>
<path d="M7750 6976 c-6 -8 -19 -12 -27 -9 -11 4 -14 2 -9 -5 4 -7 11 -12 15
-12 14 0 57 39 45 40 -6 0 -17 -6 -24 -14z"/>
<path d="M3330 6969 c0 -5 5 -7 10 -4 6 3 10 8 10 11 0 2 -4 4 -10 4 -5 0 -10
-5 -10 -11z"/>
<path d="M3155 6950 c-10 -11 -16 -22 -14 -24 2 -2 12 7 22 20 22 29 17 32 -8
4z"/>
<path d="M7509 6913 c-13 -16 -12 -17 4 -4 9 7 17 15 17 17 0 8 -8 3 -21 -13z"/>
<path d="M2838 6852 c-3 -11 0 -19 8 -19 7 0 10 5 7 10 -3 5 1 13 8 18 11 7
11 9 -2 9 -9 0 -19 -8 -21 -18z"/>
<path d="M2901 6831 c-1 -7 -11 -22 -23 -32 -11 -11 -17 -19 -11 -19 16 0 45
38 40 52 -4 10 -6 10 -6 -1z"/>
<path d="M3210 6825 c-8 -9 -21 -13 -34 -10 -17 5 -18 4 -6 -4 23 -16 38 -13
50 9 13 24 8 26 -10 5z"/>
<path d="M2820 6810 c-9 -6 -10 -10 -3 -10 6 0 15 5 18 10 8 12 4 12 -15 0z"/>
<path d="M7922 6790 c0 -14 2 -19 5 -12 2 6 2 18 0 25 -3 6 -5 1 -5 -13z"/>
<path d="M2785 6760 c-3 -5 -1 -10 4 -10 6 0 11 5 11 10 0 6 -2 10 -4 10 -3 0
-8 -4 -11 -10z"/>
<path d="M7561 6744 c0 -11 3 -14 6 -6 3 7 2 16 -1 19 -3 4 -6 -2 -5 -13z"/>
<path d="M7895 6730 c-9 -16 -13 -30 -11 -30 3 0 12 14 21 30 9 17 13 30 11
30 -3 0 -12 -13 -21 -30z"/>
<path d="M7726 6724 c-5 -13 -3 -14 6 -7 7 6 20 13 28 16 10 4 8 6 -6 6 -12 1
-25 -6 -28 -15z"/>
<path d="M7840 6724 c0 -5 7 -18 15 -28 8 -11 15 -16 15 -10 0 5 -7 18 -15 28
-8 11 -15 16 -15 10z"/>
<path d="M7690 6710 c0 -5 5 -10 11 -10 5 0 7 5 4 10 -3 6 -8 10 -11 10 -2 0
-4 -4 -4 -10z"/>
<path d="M7800 6690 c-14 -34 -27 -38 -46 -12 -12 15 -13 15 -14 1 0 -9 7 -19
15 -23 8 -3 12 -12 9 -20 -3 -8 0 -17 7 -22 9 -5 10 -2 6 9 -3 9 -2 19 3 22 6
4 10 -4 11 -17 0 -22 1 -22 8 -3 5 12 4 23 -3 27 -8 5 -7 8 2 8 7 0 11 4 8 9
-3 5 1 14 9 21 12 10 15 10 15 0 0 -8 2 -11 5 -8 7 7 -5 38 -15 38 -4 0 -13
-13 -20 -30z"/>
<path d="M2957 6699 c7 -7 15 -10 18 -7 3 3 -2 9 -12 12 -14 6 -15 5 -6 -5z"/>
<path d="M3017 6669 c7 -7 15 -10 18 -7 3 3 -2 9 -12 12 -14 6 -15 5 -6 -5z"/>
<path d="M7687 6659 c7 -7 15 -10 18 -7 3 3 -2 9 -12 12 -14 6 -15 5 -6 -5z"/>
<path d="M7724 6586 c-9 -20 -9 -23 2 -19 8 3 14 14 14 24 0 25 -3 24 -16 -5z"/>
<path d="M7730 6496 c7 -7 13 -7 20 0 6 6 3 10 -10 10 -13 0 -16 -4 -10 -10z"/>
<path d="M5013 6430 c0 -41 2 -58 4 -37 2 20 2 54 0 75 -2 20 -4 3 -4 -38z"/>
<path d="M3642 6380 c0 -14 2 -19 5 -12 2 6 2 18 0 25 -3 6 -5 1 -5 -13z"/>
<path d="M6062 6370 c0 -14 2 -19 5 -12 2 6 2 18 0 25 -3 6 -5 1 -5 -13z"/>
<path d="M5013 6220 c0 -47 2 -66 4 -42 2 23 2 61 0 85 -2 23 -4 4 -4 -43z"/>
<path d="M3817 6229 c7 -7 15 -10 18 -7 3 3 -2 9 -12 12 -14 6 -15 5 -6 -5z"/>
<path d="M4594 5755 c0 -181 2 -257 3 -168 2 89 2 237 0 330 -1 92 -3 20 -3
-162z"/>
<path d="M4174 5535 c0 -181 2 -257 3 -168 2 89 2 237 0 330 -1 92 -3 20 -3
-162z"/>
<path d="M6561 5594 c0 -11 3 -14 6 -6 3 7 2 16 -1 19 -3 4 -6 -2 -5 -13z"/>
<path d="M4594 5080 c0 -168 2 -236 3 -152 2 83 2 221 0 305 -1 83 -3 15 -3
-153z"/>
<path d="M3744 5070 c0 -162 2 -229 3 -147 2 81 2 213 0 295 -1 81 -3 14 -3
-148z"/>
<path d="M4174 5020 c0 -63 1 -89 3 -57 2 31 2 83 0 115 -2 31 -3 5 -3 -58z"/>
<path d="M4172 4860 c0 -14 2 -19 5 -12 2 6 2 18 0 25 -3 6 -5 1 -5 -13z"/>
<path d="M4058 3873 c12 -2 32 -2 45 0 12 2 2 4 -23 4 -25 0 -35 -2 -22 -4z"/>
<path d="M4558 3873 c12 -2 32 -2 45 0 12 2 2 4 -23 4 -25 0 -35 -2 -22 -4z"/>
<path d="M6193 3873 c15 -2 37 -2 50 0 12 2 0 4 -28 4 -27 0 -38 -2 -22 -4z"/>
<path d="M6385 3840 c3 -5 8 -10 11 -10 2 0 4 5 4 10 0 6 -5 10 -11 10 -5 0
-7 -4 -4 -10z"/>
<path d="M6640 3841 c0 -6 4 -13 10 -16 6 -3 7 1 4 9 -7 18 -14 21 -14 7z"/>
<path d="M4900 3651 c0 -6 4 -13 10 -16 6 -3 7 1 4 9 -7 18 -14 21 -14 7z"/>
</g>
</svg>
